<svg width="43" height="61" fill="none" xmlns="http://www.w3.org/2000/svg">
  <g clip-path="url(#a)">
    <path d="M8.58 28.23c.165-.31.2-.646.202-.987.006-.694.008-1.388.017-2.083a.793.793 0 0 1 .483-.74c.461-.217.92-.445 1.46-.429.292.01.578-.094.859-.186.647-.212 1.337-.203 1.992-.383 1.35-.37 2.742-.554 4.098-.899.655-.166 1.325-.158 1.988-.203 1.63-.111 3.264-.189 4.897-.283 1.11-.065 2.22-.134 3.331-.206 1.544-.098 3.086-.218 4.631-.296 1.155-.058 2.307-.169 3.465-.177.284-.002.568-.061.855-.057.116.002.225.007.326.07-.022.221.105.409.137.618a.563.563 0 0 0-.233.446c-.025.537-.07 1.073-.061 1.612a.558.558 0 0 0 .172.42l-.01.414c-.08.006-.162.009-.159.123.018.63-.077 1.277.26 1.863l.114.422.503 1.858c.016.063.04.113.106.134.268.261.536.523.739.842-.068-.009-.138-.013-.205-.028-.45-.095-.899-.191-1.347-.29-.087-.019-.171-.056-.169.096.006.556-.006 1.114.012 1.67.009.292.223.428.505.364.33-.075.656-.175.99-.214.335-.04.687-.133 1.008.078-.008.108-.024.215.039.315-.506.02-.505.02-.622.516-.187.798-.272 1.613-.386 2.423a119.913 119.913 0 0 1-.513 3.33c-.068.399-.017.809-.17 1.199a982.312 982.312 0 0 0-2.552 6.582c-.222.581-.546 1.052-1.073 1.404-.506.338-.971.738-1.457 1.107-.894.68-1.77 1.388-2.691 2.032-1.085.759-2.342 1.177-3.564 1.654-1.315.514-2.69.673-4.092.605a2.167 2.167 0 0 1-1.187-.432c-.314-.229-.54-.544-.826-.799-.535-.478-1.12-.458-1.62.053-.15.151-.258.33-.365.51-.295.503-.436.567-1.002.396-.522-.158-1.056-.265-1.578-.43-.33-.105-.637-.21-.84-.471-.597-.765-1.234-1.496-1.777-2.307-.782-1.17-1.495-2.37-1.954-3.71-.066-.192-.184-.314-.401-.305-.115-.85-.227-1.7-.346-2.55-.118-.83-.274-1.655-.352-2.49-.036-.378-.145-.748-.103-1.146.025-.22-.139-.47-.119-.726.797.06 1.588.176 2.386.233.995.072 1.986.193 2.986.188.656-.003 1.12-.255 1.453-.83a14.414 14.414 0 0 0 1.33-3.148c.221-.752.357-1.526.57-2.279.167-.593.533-.752 1.037-.605.277.08.465.303.6.55.261.474.457.98.614 1.498.511 1.69 1.22 3.278 2.287 4.698.291.386.618.659 1.096.775.79.192 1.595.244 2.4.258 1.698.03 3.397.052 5.092-.09.658-.054 1.301-.208 1.859-.606.723-.517 1.053-1.28 1.273-2.094.325-1.207.633-2.422.828-3.66.042-.265.161-.523.15-.783-.01-.239.07-.41.255-.474.441-.152.51-.485.514-.879.004-.454.015-.907.018-1.36.003-.394-.067-.536-.483-.668-.393-.125-.801-.143-1.21-.163-.411-.02-.821-.068-1.233-.104.011-.092.065-.092.117-.106.369-.097.388-.12.108-.368-.424-.378-.87-.732-1.29-1.12-.343-.318-.793-.284-1.25-.177.602.756 1.3 1.345 2.165 1.749-.552-.043-1.102-.037-1.64-.157.168-.034.337-.05.515-.117-.117-.142-.204-.275-.316-.381-.253-.24-.537-.448-.775-.701-.33-.356-.703-.514-1.195-.463-.418.043-.439.037-.28.424l-.025.024c-.353-.276-.753-.355-1.199-.34-.397.015-.774.113-1.153.198-1.721.387-3.425.853-5.18 1.076-.425.054-.614.3-.61.734.002.267-.126.48-.378.547-.74.195-1.47.448-2.26.337-.157-.022-.314-.07-.484-.06-.478.03-.873-.222-.998-.687-.103-.388-.362-.502-.697-.515-.605-.022-1.196-.16-1.779-.282-1.202-.253-2.413-.466-3.607-.758-.337-.082-.65.03-.973.041-.45.014-.798.154-1.113.475-.243.249-.49.526-.874.573.008-.247-.092-.484-.065-.732Zm17.014 19.18v.056h.419c.141.001.302.018.297-.19-.005-.198-.165-.17-.292-.167-1.11.025-2.22-.052-3.328-.12-.212-.012-.432-.024-.64-.064-.81-.154-1.63-.231-2.45-.29-.743-.053-1.42.197-2.069.54-.547.288-1.096.576-1.724.65-.142.016-.246.055-.22.218.024.16.143.132.262.12.754-.077 1.413-.42 2.058-.774.716-.393 1.464-.468 2.247-.363 1.106.148 2.213.304 3.327.378.701.045 1.408.007 2.113.007Z" fill="#EEE0EE"/>
    <path d="M41.61 23.383c-.759-.281-1.484-.638-2.224-.962-.74-.322-1.476-.658-2.215-.987-.1-.063-.21-.068-.325-.07-.288-.004-.571.054-.856.056-1.158.008-2.31.119-3.464.178-1.545.077-3.087.197-4.631.296-1.11.072-2.221.14-3.332.206-1.632.095-3.265.172-4.897.283-.663.045-1.331.036-1.987.203-1.356.345-2.748.528-4.099.9-.655.18-1.344.17-1.992.382-.281.092-.566.195-.86.186-.538-.016-.997.212-1.459.428a.79.79 0 0 0-.483.74c-.008.695-.01 1.389-.017 2.083-.003.342-.037.679-.2.988-.22.075-.382 0-.485-.201-.086-.17-.184-.338-.237-.52-.144-.481-.514-.568-.92-.438-1.382.44-2.776.837-4.167 1.245-.424.124-.844.266-1.271.373-.312.077-.631.175-.938-.064-.56-.437-.544-1.357.064-1.74 1.19-.748 2.395-1.47 3.584-2.218.452-.283.915-.549 1.377-.81.526-.3.6-.727.523-1.232-.14-.914-.328-1.82-.448-2.737a32.434 32.434 0 0 0-.277-1.83c-.163-.858-.233-1.728-.386-2.584a64.142 64.142 0 0 1-.42-2.66c-.127-.929-.33-1.875-.086-2.83.134-.523.376-.992.625-1.461.246-.357.479-.725.795-1.025.53-.501 1.146-.889 1.762-1.266 1.79-1.1 3.625-2.124 5.468-3.132 1.55-.848 3.098-1.704 4.774-2.29.877-.306 1.776-.51 2.703-.618a14.451 14.451 0 0 1 2.518-.097c1.057.061 2.102.23 3.141.434.806.158 1.609.342 2.408.535 1.29.312 2.532.772 3.77 1.253.533.208 1.09.37 1.573.674 1.07.674 2.044 1.462 2.716 2.56.214.35.347.742.496 1.123.718 1.843 1.34 3.717 1.954 5.596a33.18 33.18 0 0 1 1.046 4.046c.138.715.303 1.427.442 2.143.018.09.08.152.101.235-.045.342.071.664.134.989.231 1.206.48 2.408.722 3.612-.007.01-.014.017-.02.024Z" fill="url(#b)"/>
    <path d="M8.656 29.006c.385-.047.631-.323.875-.573.315-.32.662-.461 1.113-.475.322-.01.636-.123.973-.04 1.193.29 2.405.504 3.606.757.584.124 1.174.26 1.78.282.335.013.594.127.697.515.124.465.52.717.998.687.168-.01.325.038.484.06.79.111 1.52-.142 2.26-.337.252-.067.38-.28.377-.548-.003-.433.185-.679.611-.733 1.755-.223 3.46-.688 5.18-1.075.379-.086.755-.184 1.153-.198.445-.016.844.063 1.199.338l.047.023a.975.975 0 0 0-.023-.047c-.16-.387-.138-.38.28-.424.492-.05.863.107 1.195.463.236.253.52.462.775.7.112.107.2.24.316.382-.18.067-.347.083-.516.117.539.12 1.088.114 1.64.157-.864-.404-1.563-.993-2.165-1.75.457-.106.908-.14 1.251.178.42.388.865.742 1.29 1.12.28.249.26.27-.109.368-.051.014-.106.015-.117.106.412.035.822.084 1.233.104.41.02.818.038 1.21.163.417.132.487.274.484.668-.004.453-.015.906-.019 1.36-.004.394-.072.727-.514.879-.183.062-.264.235-.255.474.01.26-.108.519-.15.783-.196 1.238-.503 2.452-.828 3.66-.22.813-.55 1.576-1.273 2.094-.558.398-1.2.552-1.859.607-1.694.14-3.393.118-5.091.089-.805-.014-1.609-.066-2.4-.258-.48-.116-.805-.389-1.096-.775-1.067-1.42-1.776-3.008-2.288-4.698a7.841 7.841 0 0 0-.613-1.499c-.135-.246-.323-.468-.6-.549-.505-.148-.87.012-1.038.605-.213.754-.348 1.527-.57 2.278a14.432 14.432 0 0 1-1.33 3.149c-.332.575-.797.827-1.453.83-1 .005-1.99-.116-2.985-.188-.798-.057-1.59-.173-2.386-.233-.323-.172-.689-.212-1.027-.341-.827-.316-1.284-.902-1.434-1.768-.2-1.161-.418-2.32-.634-3.478a16.648 16.648 0 0 0-.207-.926.626.626 0 0 0-.298-.405c-.171-.1-.243-.233-.234-.445.019-.435.022-.873-.003-1.307-.015-.243.11-.29.295-.331.499-.111 1.019-.104 1.506-.267.243-.078.512-.11.687-.328Z" fill="url(#c)"/>
    <path d="M10.757 45.364c.217-.009.336.114.402.306.458 1.34 1.171 2.538 1.954 3.709.541.81 1.178 1.542 1.776 2.307.204.26.51.367.84.471.522.166 1.056.273 1.578.43.565.17.706.107 1.003-.396.105-.18.215-.358.364-.51.5-.51 1.085-.53 1.62-.053.285.256.512.57.826.799.356.26.755.41 1.186.432 1.403.068 2.778-.09 4.093-.605 1.22-.478 2.478-.895 3.564-1.654.92-.644 1.797-1.351 2.691-2.032.486-.37.951-.768 1.457-1.107.527-.352.85-.823 1.073-1.403a910.715 910.715 0 0 1 2.552-6.583c.153-.39.102-.8.17-1.198.189-1.107.355-2.22.513-3.331.115-.81.199-1.626.386-2.423.116-.496.115-.496.622-.516.608.173.636.214.441.865-.473 1.577-.99 3.14-1.507 4.705l-.327.982c.144-.034.149-.142.19-.217.13-.247.254-.496.384-.743.027-.052.06-.13.127-.116.085.017.07.107.075.174.096 1.045.015 2.091-.015 3.134-.037 1.24-.041 2.478-.045 3.718-.003.844.115 1.675.258 2.505.1.577-.075 1.111-.34 1.611-.51.962-.984 1.95-1.63 2.826-.585.791-1.076 1.663-1.834 2.322-.62.538-1.297.993-1.994 1.415-.9.546-1.71 1.22-2.564 1.828-.55.392-1.07.832-1.69 1.117-.418.192-.875.247-1.299.423-1.301.542-2.615 1.055-3.92 1.586-.724.294-1.462.55-2.24.618-.481.042-.949-.13-1.4-.302-.544-.206-1.023-.52-1.504-.844-.778-.521-1.628-.93-2.407-1.454a3.906 3.906 0 0 1-1.427-1.706 86.503 86.503 0 0 0-1.761-3.744c-.034-.068-.054-.148-.147-.171-.274-.066-.387-.29-.526-.507-.427-.671-.58-1.464-.982-2.144-.09-.15-.189-.293-.283-.439-.212-.328-.382-.681-.334-1.078.068-.57-.155-1.1-.182-1.655-.016-.347-.06-.692-.074-1.039-.011-.184.072-.317.287-.313ZM37.04 24.36a.56.56 0 0 1-.172-.42c-.01-.539.037-1.075.06-1.612a.563.563 0 0 1 .234-.446c.567.087 1.068.362 1.593.566.828.32 1.634.696 2.47.992.455.162.62.465.657.89.033.382.04.765.066 1.148.011.175-.03.2-.206.15-1.48-.418-2.964-.824-4.447-1.23-.082-.023-.17-.026-.255-.038Zm.09 2.4c-.336-.585-.241-1.232-.259-1.863-.003-.114.079-.117.16-.123.752.04 1.468.255 2.186.457.853.241 1.693.521 2.52.84.22.086.302.217.311.418.017.366.01.73-.027 1.095-.025.24-.126.264-.32.22-.635-.146-1.272-.284-1.907-.428-.888-.203-1.775-.41-2.663-.616Zm.723 2.414c-.066-.02-.09-.071-.106-.134l-.503-1.858c.235-.126.463-.012.681.04 1.203.283 2.4.582 3.6.874.429.104.43.1.428.544-.002.488.001.977-.005 1.466-.005.37-.138.466-.474.316-1.14-.506-2.346-.824-3.509-1.269-.042-.014-.08-.026-.112.021Zm1.534 2.621c-.321-.211-.673-.117-1.008-.077-.334.04-.66.14-.99.214-.282.064-.496-.072-.505-.364-.018-.556-.006-1.114-.012-1.67-.002-.153.082-.115.169-.096.448.098.897.195 1.347.29.067.015.137.02.205.027.957.281 1.912.568 2.871.839.228.064.246.147.128.336-.27.435-.87.712-1.368.597a3.058 3.058 0 0 0-.837-.096Z" fill="url(#d)"/>
    <path d="M40.268 34.868c.073.541.166 1.055.417 1.53.143.27.308.529.542.726a.65.65 0 0 1 .24.523c.007.549.006 1.098.007 1.647a.465.465 0 0 1-.2.38c-.495.377-.993.75-1.49 1.125-.065.05-.133.104-.209.045-.072-.056-.092-.144-.069-.236.04-.164.153-.268.289-.356.762-.49 1.122-1.18 1.058-2.096-.029-.425-.203-.747-.561-.974-.555-.35-.652-.647-.42-1.252.136-.352.264-.707.396-1.062Zm.671-1.2c.129-.26.32-.427.5-.601.181-.175.37-.344.554-.516.203-.19.303-.138.477.066.386.457.331.943.223 1.472-.136.655-.221 1.32-.33 1.982a.118.118 0 0 1-.062.087v-2.536c0-.329-.016-.338-.34-.266-.198.044-.376.136-.564.205-.134.049-.268.116-.458.107Zm-15.322 13.79c-.705 0-1.412.039-2.113-.008-1.114-.074-2.22-.23-3.327-.378-.783-.104-1.53-.03-2.247.363-.645.353-1.304.697-2.058.774-.12.013-.238.041-.262-.12-.024-.163.08-.201.22-.218.628-.074 1.177-.362 1.724-.65.649-.342 1.326-.592 2.07-.54.82.059 1.639.137 2.45.29.207.04.427.05.64.065 1.086.066 2.178.145 3.327.119.127-.003.288-.03.292.167.005.208-.156.191-.297.19h-.419v-.053Z" fill="url(#e)"/>
  </g>
  <defs>
    <linearGradient id="b" x1="0" y1="0" x2="10.611" y2="60.066" gradientUnits="userSpaceOnUse">
      <stop stop-color="#195CC0"/>
      <stop offset="1" stop-color="#B51A77"/>
    </linearGradient>
    <linearGradient id="c" x1="0" y1="0" x2="10.611" y2="60.066" gradientUnits="userSpaceOnUse">
      <stop stop-color="#195CC0"/>
      <stop offset="1" stop-color="#B51A77"/>
    </linearGradient>
    <linearGradient id="d" x1="0" y1="0" x2="10.611" y2="60.066" gradientUnits="userSpaceOnUse">
      <stop stop-color="#195CC0"/>
      <stop offset="1" stop-color="#B51A77"/>
    </linearGradient>
    <linearGradient id="e" x1="0" y1="0" x2="10.612" y2="60.066" gradientUnits="userSpaceOnUse">
      <stop stop-color="#195CC0"/>
      <stop offset="1" stop-color="#B51A77"/>
    </linearGradient>
    <clipPath id="a">
      <path fill="#fff" d="M0 0h43v61H0z"/>
    </clipPath>
  </defs>
</svg>